<?xml version="1.0" encoding="utf-8"?>
<!-- Generator: Adobe Illustrator 18.0.0, SVG Export Plug-In . SVG Version: 6.00 Build 0)  -->
<!DOCTYPE svg PUBLIC "-//W3C//DTD SVG 1.1//EN" "http://www.w3.org/Graphics/SVG/1.1/DTD/svg11.dtd">
<svg version="1.1" id="Layer_1" xmlns="http://www.w3.org/2000/svg" xmlns:xlink="http://www.w3.org/1999/xlink" x="0px" y="0px"
	 viewBox="0 0 841.9 595.3" enable-background="new 0 0 841.9 595.3" xml:space="preserve">
<g>
	<path fill="#EFEEEE" d="M627.1,564.3c2.2-13.6,4.3-26.4,1-37.3c-3.6-11.8-13-21.3-22.9-31.3c-6-6.1-12.3-12.4-17.4-19.5
		c-5.1-7.2-9.1-15.3-13-22.9c-6.3-12.6-12.3-24.6-21.9-31.3c-1.9-1.3-6.3-2.8-10.2-4.2c-3-0.7-7.2-1.2-11.5-1.8
		c-9.1-1.2-19.3-2.7-28.5-7.2c-8.2-4-15.4-10.9-22.5-17.5c-6.6-6.1-13.3-12.4-19-14.5l-2.5-1.5c-5.5-4.8-14.1-5.1-23.7-1.3
		c-9.4,3.6-18.4,11.4-24.4,17.1l-4.3,4c-9.6,8.5-23.4,13.3-35.5,17.5c-5.7,1.9-11.2,3.9-15.7,6c-2.1,0.9-5.5,3.1-6.7,3.7
		c-9.3,6.4-15.3,18.4-21.6,31.2c-3.9,7.8-7.9,15.7-13,22.9c-4.9,7-11.2,13.3-17.4,19.5c-9.9,10-19.2,19.5-22.9,31.3
		c-3.3,10.8-1.2,23.7,1,37.3c1.5,9.1,3,18.4,3,27.9c0,1,0,1.9,0,2.9h90.4c0.1-49.5,22.9-92.6,56.2-114.9c0.3,0,5.2-3.1,5.2-3.1
		c7.6-5.2,23.1-16.8,26.8-30.7c1.8-10.2,9.7-18.1,19.5-18.1c9.7,0,17.8,8.1,19.6,18.1c4.2,13.9,19.2,25.5,27.3,30.7
		c2.8,2.1,4.5,3.1,4.9,3.1c33.6,22.4,56.2,65.4,56.4,114.9h40.5c0-1,0-1.9,0-2.9C624.1,582.9,625.6,573.5,627.1,564.3z"/>
	<path fill="#EFEEEE" d="M680,547.5c5.1-17.1,10-33.3,5.7-46.6c-4.5-14.2-18.3-24.7-32.8-35.8c-10.8-8.2-22-16.8-29.7-27.4
		c-7.8-10.8-12.6-24.3-17.1-37.3c-6-17.2-11.7-33.4-23.4-41.8c-3.7-2.5-8.8-4.5-16.3-6c-6.9-1-15.1-1.2-23.7-1.2
		c-14.1-0.1-28.5-0.1-41.4-5.1c-12-4.5-22.8-13.8-33.3-22.6c-12-10.2-24.3-20.7-36.3-21.9c-3-0.4-4.9-0.7-7-0.7
		c-8.5,0-18.4,3.9-31.9,12.4c-4.9,3.1-9.9,6.7-14.7,10.2c-7.5,5.4-14.4,10.3-21.6,14.1c-2.7,1.3-5.5,2.5-8.2,3.7
		c-11.4,4.3-24.6,5.7-37.5,6.9c-12.4,1.3-24.3,2.5-33.4,6.1c-2.2,0.7-5.8,2.7-8.1,4.3c-11.7,8.4-17.4,24.6-23.2,41.8
		c-4.5,13-9.3,26.5-17.1,37.3c-7.6,10.6-18.9,19.2-29.7,27.4c-14.5,11.1-28.3,21.6-32.8,35.8c-4.2,13.3,0.6,29.4,5.7,46.6
		c4,13.6,8.2,27.7,8.2,41.7c0,1.9-0.1,3.8-0.2,5.8H261c0-0.9,0.1-1.8,0.1-2.6c0-8.1-1.5-16.8-2.8-25.3c-2.4-14.8-4.9-30.3-0.4-44.8
		c4.8-15.6,16-27,26.8-37.9c5.8-6,11.4-11.5,15.6-17.5c4.3-6.1,7.9-13.3,11.7-20.8c6.9-13.9,14.2-28.3,27.3-37.5
		c6.1-3.7,8.1-4.8,9.4-5.2c4.2-2.1,10.2-4.2,16.5-6.3c10.8-3.7,22.9-7.9,29.8-14.2l3.3-3c8.5-7.9,18.7-16.8,30.7-21.3
		c14.8-5.7,29.1-4.5,39.1,3.3c8.4,3.4,16,10.6,23.4,17.5c6.1,5.8,12.6,11.8,18.6,14.8c6.7,3.3,15.1,4.5,23.4,5.7
		c4.8,0.6,9.6,1.3,13.8,2.4c6.9,2.4,11.4,4.2,14.8,6.4c13.2,9.3,20.4,23.7,27.3,37.6c3.7,7.5,7.3,14.7,11.7,20.8
		c4.2,6,9.7,11.5,15.6,17.5c10.9,10.9,22,22.3,27,37.9c4.5,14.5,1.9,30-0.4,44.8c-1.3,8.4-2.8,17.2-2.8,25.3c0,0.8,0,1.5,0,2.3H672
		c-0.2-2-0.2-4-0.2-6.1C671.8,575.3,676,561.2,680,547.5z"/>
	<path fill="#EFEEEE" d="M764.6,479.9c-11.4-35.1-64.9-49-86.2-78.1c-21.4-29.5-18.3-84.5-47.8-106c-16.6-12-40.3-10.8-64.2-9.6
		c-1,0-1.9,0.1-2.9,0.1c-8.6,0.4-17.2,0.8-25.4,0.4c-8.1-0.3-15.9-1.4-23.1-3.7c-33.9-10.9-63.6-57.6-101-57.6
		c-37.3,0-67,46.6-100.7,57.6c-7.5,2.5-15.8,3.5-24.5,3.8c-7.3-0.3-15.9-0.5-24.9-0.5c-0.7,0-1.3-0.1-2-0.1
		c-23-1.2-45.9-2.3-62.4,8.5c-1.3,0.6-2.4,1.3-3.4,2c-29.4,21.4-26.4,76.6-47.8,106c-21.4,29.1-74.8,42.9-86.2,77.9
		c-10.9,33.9,23.8,76.4,23.8,113.8c0,0.3,0,0.5,0,0.8h77.8c0.2-2.1,0.3-4.2,0.3-6.2c0-11.5-3.9-24.4-7.6-36.9
		c-5.7-18.7-11.4-38.1-5.7-56.2c6.1-19,22.5-31.6,38.5-43.8c10.3-7.9,20.1-15.4,26.4-24c6.4-9,10.5-20.7,14.8-33.3
		c6.6-18.9,13.3-38.4,29.2-49.8c3.1-2.1,8.1-4.9,11.8-6.3c10.9-4.3,24.4-5.7,37.5-7c11.8-1.2,24-2.4,33.4-6c2.2-0.9,4.3-1.8,6.6-2.8
		c6.1-3.1,12.7-7.9,19.6-12.9c5.1-3.6,10.2-7.3,15.4-10.6c8.1-5.2,18.4-10.7,29.2-13.3c7.1-1.7,14.3-2.2,21.3-0.5
		c1.2,0.1,2.4,0.3,3.7,0.6c14.5,2.8,27.7,14,40.6,24.9c9.9,8.4,19.2,16.2,28.5,19.8c10,3.9,23.1,3.9,35.7,4c8.8,0,18,0.1,26.5,1.5
		c10.2,1.9,17.4,4.8,22.9,8.8c15.9,11.4,22.8,30.9,29.2,49.8c4.3,12.4,8.4,24.3,14.8,33.3c6.3,8.7,16,16.2,26.4,24
		c15.9,12.1,32.4,24.7,38.5,43.8c5.7,18.1,0,37.5-5.7,56.2c-3.7,12.4-7.6,25.3-7.6,36.9c0,2,0.1,4,0.3,6.1h52.5c0-0.5,0-0.9,0-1.4
		C740.7,556.4,775.5,513.8,764.6,479.9z"/>
</g>
</svg>
