<?xml version="1.0" encoding="utf-8"?>
<!-- Generator: Adobe Illustrator 18.0.0, SVG Export Plug-In . SVG Version: 6.00 Build 0)  -->
<!DOCTYPE svg PUBLIC "-//W3C//DTD SVG 1.1//EN" "http://www.w3.org/Graphics/SVG/1.1/DTD/svg11.dtd">
<svg version="1.1" id="Layer_1" xmlns="http://www.w3.org/2000/svg" xmlns:xlink="http://www.w3.org/1999/xlink" x="0px" y="0px"
	 viewBox="0 0 841.9 595.3" enable-background="new 0 0 841.9 595.3" xml:space="preserve">
<g>
	<path fill="#EEEEEE" d="M828.6,142.9c-4-3.5-10.2-3.7-17.2-1c-6.9,2.6-13.4,8.3-17.7,12.4l-3.2,2.9c-7,6.2-17,9.7-25.8,12.7
		c-4.1,1.4-8.2,2.8-11.4,4.4c-1.5,0.7-4,2.3-4.9,2.7c-6.7,4.7-11.1,13.4-15.7,22.6c-2.8,5.7-5.8,11.4-9.5,16.7
		c-3.6,5.1-8.2,9.7-12.6,14.1c-7.2,7.3-13.9,14.1-16.7,22.7c-2.4,7.8-0.9,17.2,0.8,27.1c1.1,6.6,2.2,13.4,2.2,20.2
		c0,6.9-1,13.8-2,20.5c-1.5,10.6-3,20.7-0.2,29.2c3,9.4,10.6,16.8,18.5,24.6c4.5,4.4,9,8.9,12.7,13.8c3.8,5,7,10.6,10.1,15.9
		c5.4,9.5,10.6,18.3,18.5,23.2l1.7,1.1c8.7,4.4,16.7,5.8,23.6,6.9c3.6,0.7,6.9,1.2,9.8,2.1l2.5,1.1l7.3,4.4c3.7,2.3,7.7,4.8,12,6.7
		c6.6,3,12,4,15.5,2.9l2.7-0.9c3.3-0.3,7.5-3.8,11.9-7.5c0.1-0.1,0.2-0.2,0.3-0.3v-33.7c-0.3,0-0.6,0-1,0c-4.6,0-8.6-2.3-10.3-5.6
		l-0.5-1c-1-2.1-4.6-6.1-16-11.4c-0.5-0.2-0.8-0.5-1.3-0.8c-29.4-13.7-50.2-48.4-50.2-88.8c0-36,16.5-67.5,40.8-83.7
		c0.2,0,3.8-2.3,3.8-2.3c5.6-3.8,16.8-12.2,19.5-22.3c1.3-7.4,7.1-13.2,14.1-13.2c0.4,0,0.7,0,1.1,0.1v-29.3c-4-3.7-8-7.1-11.4-8.3
		L828.6,142.9z"/>
	<path fill="#EEEEEE" d="M809.1,90.6c-2.2-0.3-3.6-0.5-5.1-0.5c-6.2,0-13.4,2.8-23.2,9c-3.6,2.3-7.2,4.9-10.7,7.4
		c-5.4,3.9-10.4,7.5-15.7,10.2c-2,1-4,1.9-6,2.7c-8.3,3.2-17.8,4.1-27.2,5c-9,1-17.6,1.9-24.3,4.5c-1.6,0.5-4.2,2-5.9,3.2
		c-8.5,6.1-12.6,17.8-16.9,30.4c-3.3,9.5-6.7,19.3-12.4,27.1c-5.6,7.7-13.7,13.9-21.5,19.9c-10.6,8.1-20.6,15.7-23.8,26
		c-3,9.7,0.4,21.3,4.1,33.8c2.9,9.9,6,20.1,6,30.3c0,10.2-3,20.6-5.9,30.5c-3.7,12.7-7.2,24.7-3.9,34.6
		c3.5,10.7,13.7,18.5,24.6,26.8c7.9,6,16.1,12.3,21.8,19.9c5.9,7.8,9.5,17.5,13,26.9c4.7,12.5,9.1,24.3,18.1,30.4
		c0.9,0.5,1.6,1.1,2.6,1.6c9.3,4.7,20.6,4.9,31.6,5.1c6.7,0.1,13.2,0.2,19.4,1.3c0.5,0.1,1.4,0.3,2.4,0.7c2.5,0.8,3.8,1.3,5.2,1.9
		c6.9,2.8,13.6,7.5,20.1,12.2l5.1,3.6c8.3,5.7,17.1,11.1,25.4,11.1h0.9c0,0,0.2,0,0.4-0.1c9.7-0.4,18-7.2,26.8-14.5
		c2.6-2.1,5.2-4.2,7.8-6.3v-24.7c-3.1,2.1-6.3,3.9-9.9,4.5c-0.8,0.4-1.6,0.8-2.7,0.9c-1.4,0.2-3.4,0.4-5.3,0.4
		c-5,0-10.7-1.4-17.3-4.5c-4.7-2.2-9.2-4.9-13.4-7.5l-7.3-4.4c-2.6-0.7-5.1-1.1-7.7-1.5c-7.4-1.3-16.7-2.8-27-7.9
		c-0.8-0.3-1.4-0.8-2.1-1.2c-11.1-6.9-17.3-17.5-23.2-27.8c-3-5.2-5.9-10.1-9.3-14.6c-3.3-4.2-7.3-8.3-11.6-12.5
		c-8.6-8.5-17.5-17.3-21.5-29.4c-3.6-11.1-1.9-23.1-0.2-34.5c0.9-6.2,1.9-12.7,1.9-18.7c0-5.9-1.1-12.2-2.1-18.4
		c-1.7-10.8-3.6-22-0.3-32.5c3.5-11.3,11.6-19.6,19.5-27.5c4.2-4.4,8.3-8.4,11.3-12.7c3.2-4.5,5.8-9.7,8.5-15.1
		c5-10.1,10.3-20.6,19.8-27.2c4.5-2.7,5.9-3.5,6.9-3.8c3-1.5,7.4-3,12-4.6c7.8-2.7,16.7-5.8,21.7-10.3l2.4-2.2
		c6.2-5.8,13.6-12.2,22.3-15.5c10.8-4.1,21.1-3.3,28.4,2.4c2.2,0.9,4.3,2.2,6.4,3.7v-26.2c-2.2-1.8-4.3-3.6-6.4-5.3
		C826.8,99,817.8,91.4,809.1,90.6z"/>
	<path fill="#EEEEEE" d="M796.2,35.3c-27.1,0-48.6,33.8-73.1,41.8c-5.5,1.8-11.5,2.5-17.8,2.7c-5.3-0.2-11.5-0.4-18.1-0.4
		c-0.5,0-1,0-1.5-0.1c-16.7-0.8-33.3-1.7-45.3,6.1c-0.9,0.5-1.7,1-2.5,1.5c-21.3,15.6-19.2,55.6-34.7,76.9
		c-15.6,21.1-54.3,31.1-62.6,56.6c-7.9,24.6,17.3,55.5,17.3,82.6c0,27.2-25.2,58.1-17.3,82.7c8.3,25.5,47.1,35.6,62.6,56.7
		c15.6,21.4,13.3,61.4,34.7,76.9c12.1,8.7,29.3,7.8,46.6,7c0.1,0,0.1,0,0.2,0c7.9,0.1,15.5-0.1,21.7-0.3c5.4,0.3,10.6,1.1,15.4,2.6
		c24.6,7.9,46.1,41.8,73.3,41.8c17,0.1,31.9-13.4,46.7-25.3v-45.3c-0.2,0.2-0.4,0.4-0.7,0.5c-10,8.2-20.2,16.9-32.6,17.2
		c0.3,0.1-0.8,0.1-1.9,0.1l-1.4-0.1c0,0,0,0-0.1,0c-11,0-21.7-6.5-31.5-13.2l-5.2-3.7c-6.3-4.5-12.2-8.6-17.8-10.9
		c-1.1-0.4-2.1-0.8-3.2-1.2l-0.9-0.3l-0.9-0.2c-5.2-1-11.2-1.1-17.5-1.2c-11.8-0.2-25-0.4-36.9-6.4c-1.4-0.8-2.6-1.5-3.8-2.4
		c-12-8.2-17.3-22.3-22.4-36c-3.4-9-6.5-17.5-11.4-23.9c-4.7-6.3-11.9-11.8-19.5-17.5c-11.9-9-24.2-18.4-28.7-32.5
		c-4.4-13.4-0.2-27.8,3.8-41.7c2.6-9.1,5.4-18.6,5.4-27.2c0-8.4-2.8-17.7-5.6-26.8c-4.1-13.6-8.3-27.6-4.1-40.8
		c4.5-13.8,16.3-23,28-31.8c7.5-5.8,14.6-11.2,19.2-17.4c4.7-6.5,7.6-15,10.8-24.2c4.8-13.7,9.7-27.9,21.2-36.1
		c2.3-1.5,5.9-3.6,8.6-4.6c7.9-3.2,17.7-4.1,27.2-5.1c8.6-0.9,17.4-1.7,24.3-4.4c1.6-0.7,3.2-1.3,4.8-2.1c4.5-2.3,9.3-5.8,14.3-9.4
		c3.7-2.6,7.4-5.3,11.2-7.7c5.9-3.8,13.3-7.7,21.2-9.6c5.1-1.2,10.4-1.6,15.5-0.4c0.9,0.1,1.8,0.2,2.7,0.4c10,2,19.2,9.4,28.1,17
		V59.7C827.4,48,812.9,35.3,796.2,35.3z"/>
</g>
</svg>
