<?xml version="1.0" encoding="utf-8"?>
<!-- Generator: Adobe Illustrator 18.0.0, SVG Export Plug-In . SVG Version: 6.00 Build 0)  -->
<!DOCTYPE svg PUBLIC "-//W3C//DTD SVG 1.1//EN" "http://www.w3.org/Graphics/SVG/1.1/DTD/svg11.dtd">
<svg version="1.1" id="Layer_1" xmlns="http://www.w3.org/2000/svg" xmlns:xlink="http://www.w3.org/1999/xlink" x="0px" y="0px"
	 viewBox="0 0 841.9 595.3" enable-background="new 0 0 841.9 595.3" xml:space="preserve">
<g>
	<path fill="none" d="M327.9,62.3v533h55c6.8-29.6,26.3-61.9,26.3-91.3c0-41.1-38.3-88-26.2-125.3c12.5-38.6,71.3-53.8,94.9-85.8
		c23.6-32.4,20.3-93.1,52.7-116.7c1.1-0.8,2.4-1.5,3.7-2.2c18.2-11.8,43.4-10.6,68.7-9.3c0.7,0,1.5,0.1,2.2,0.1
		c9.9,0,19.4,0.3,27.4,0.6c9.5-0.3,18.7-1.4,27-4.1c37.1-12.1,69.8-63.4,110.9-63.4c25.3,0,47.4,19.3,69.3,37.1v55.5
		c-13.5-11.5-27.5-22.8-42.7-25.8c-1.3-0.3-2.7-0.5-4-0.6c-7.7-1.8-15.7-1.3-23.5,0.6c-11.9,2.9-23.3,8.9-32.1,14.6
		c-5.8,3.6-11.4,7.8-17,11.7c-7.6,5.4-14.9,10.7-21.6,14.2c-2.5,1.2-4.8,2.1-7.3,3.1c-10.4,4-23.8,5.3-36.8,6.6
		c-14.4,1.5-29.2,3-41.3,7.8c-4.1,1.5-9.6,4.6-13,6.9c-17.5,12.5-24.9,34-32.2,54.8c-4.8,13.9-9.2,26.7-16.3,36.6
		c-6.9,9.4-17.7,17.7-29.1,26.4c-17.7,13.4-35.7,27.2-42.4,48.2c-6.3,20,0,41.3,6.3,61.9c4.1,13.7,8.4,27.9,8.4,40.6
		c0,13-4.3,27.4-8.3,41.3c-5.4,18.6-10.9,37.8-7.6,56h18.6c-3.9-14.6,1.1-32.1,6.5-50.5c4.3-15,8.9-30.7,8.9-46.2
		c0-15.4-4.6-30.9-9.1-45.9c-5.6-19-10.9-36.6-6.3-51.3c5-15.7,20.1-27.2,36.2-39.5c11.9-9.1,24.3-18.5,32.7-30.2
		c8.6-11.9,13.9-26.7,18.8-41.1c6.4-19,12.7-36.8,25.6-46.1c2.5-1.8,6.4-4,8.9-4.8c10.1-4,23.1-5.3,36.8-6.8
		c14.2-1.3,28.7-2.8,41.3-7.6c3-1.3,6.1-2.6,9.1-4.1c7.9-4.1,15.5-9.6,23.8-15.5c5.3-3.8,10.7-7.8,16.2-11.2
		c14.9-9.4,25.8-13.7,35.2-13.7c2.3,0,4.5,0.3,7.8,0.8c13.2,1.3,26.7,12.9,39.9,24.1c3.2,2.7,6.5,5.4,9.7,8.1v39.7
		c-3.2-2.2-6.4-4.2-9.7-5.5c-11.1-8.6-26.7-9.9-43.1-3.6c-13.2,5-24.4,14.7-33.8,23.4l-3.6,3.3c-7.6,6.9-21,11.6-32.9,15.7
		c-6.9,2.3-13.5,4.6-18.2,6.9c-1.5,0.5-3.6,1.7-10.4,5.8c-14.4,10.1-22.5,25.9-30,41.3c-4.1,8.3-8.1,16.2-12.9,22.9
		c-4.6,6.6-10.7,12.7-17.2,19.3c-11.9,12.1-24.3,24.6-29.5,41.8c-5,16-2.1,33,0.5,49.4c1.5,9.4,3.1,19,3.1,27.9
		c0,9.1-1.5,19-2.8,28.4c-2.5,17.3-5.1,35.5,0.3,52.3c1.5,4.5,3.4,8.6,5.7,12.6H627c-4.5-5.7-8.2-11.7-10.3-18.4
		c-4.3-12.9-2-28.2,0.3-44.2c1.5-10.1,3-20.6,3-31c0-10.4-1.7-20.6-3.3-30.7c-2.5-15-4.8-29.2-1.2-41.1c4.1-13,14.4-23.4,25.3-34.5
		c6.8-6.8,13.7-13.7,19.1-21.5c5.6-7.9,10.1-16.7,14.4-25.3c6.9-14,13.5-27.2,23.8-34.3c1.3-0.7,5.1-3.1,7.4-4.1
		c5-2.3,11.1-4.5,17.3-6.6c13.4-4.6,28.6-9.9,39.1-19.3l4.8-4.5c6.6-6.3,16.5-14.9,26.9-18.8c10.6-4.1,20-3.8,26.1,1.5l2.8,1.7
		c5.2,1.9,11.3,7.1,17.3,12.6v44.4c-0.5,0-1.1-0.1-1.6-0.1c-10.7,0-19.5,8.7-21.5,20c-4.1,15.4-21.1,28.1-29.5,33.8
		c0,0-5.4,3.5-5.8,3.5c-36.8,24.6-61.9,72.3-61.9,126.9c0,34,9.7,65.3,26,90h96.4v-533H327.9z"/>
	<path opacity="0.19" fill="#EFEEEE" d="M781.5,378.3c0.3,0,5.8-3.5,5.8-3.5c8.4-5.8,25.4-18.5,29.5-33.8c2-11.2,10.7-20,21.5-20
		c0.6,0,1.1,0,1.6,0.1v-44.4c-6.1-5.6-12.1-10.7-17.3-12.6l-2.8-1.7c-6.1-5.3-15.5-5.6-26.1-1.5c-10.4,4-20.3,12.5-26.9,18.8
		l-4.8,4.5c-10.6,9.4-25.8,14.7-39.1,19.3c-6.3,2.1-12.4,4.3-17.3,6.6c-2.3,1-6.1,3.5-7.4,4.1c-10.2,7.1-16.8,20.3-23.8,34.3
		c-4.3,8.6-8.7,17.3-14.4,25.3c-5.4,7.8-12.4,14.7-19.1,21.5c-10.9,11.1-21.1,21.5-25.3,34.5c-3.6,11.9-1.3,26.1,1.2,41.1
		c1.7,10.1,3.3,20.3,3.3,30.7c0,10.4-1.5,21-3,31c-2.3,16-4.6,31.4-0.3,44.2c2.2,6.6,5.8,12.6,10.3,18.4h118.5
		c-16.2-24.7-26-56-26-90C719.6,450.6,744.6,402.9,781.5,378.3z"/>
	<path opacity="0.19" fill="#EFEEEE" d="M599.4,530.4c1.3-9.4,2.8-19.3,2.8-28.4c0-8.9-1.7-18.5-3.1-27.9
		c-2.6-16.3-5.4-33.3-0.5-49.4c5.3-17.2,17.7-29.7,29.5-41.8c6.4-6.6,12.5-12.7,17.2-19.3c4.8-6.8,8.7-14.7,12.9-22.9
		c7.6-15.4,15.7-31.2,30-41.3c6.8-4.1,8.9-5.3,10.4-5.8c4.6-2.3,11.2-4.6,18.2-6.9c11.9-4.1,25.3-8.7,32.9-15.7l3.6-3.3
		c9.4-8.7,20.6-18.5,33.8-23.4c16.3-6.3,32-5,43.1,3.6c3.3,1.4,6.6,3.3,9.7,5.5v-39.7c-3.3-2.7-6.5-5.4-9.7-8.1
		c-13.2-11.2-26.7-22.8-39.9-24.1c-3.3-0.5-5.4-0.8-7.8-0.8c-9.4,0-20.3,4.3-35.2,13.7c-5.4,3.5-10.9,7.4-16.2,11.2
		c-8.3,5.9-15.8,11.4-23.8,15.5c-3,1.5-6.1,2.8-9.1,4.1c-12.5,4.8-27.1,6.3-41.3,7.6c-13.7,1.5-26.7,2.8-36.8,6.8
		c-2.5,0.8-6.4,3-8.9,4.8c-12.9,9.2-19.1,27.1-25.6,46.1c-5,14.4-10.2,29.2-18.8,41.1c-8.4,11.7-20.8,21.1-32.7,30.2
		c-16,12.2-31.2,23.8-36.2,39.5c-4.6,14.7,0.7,32.4,6.3,51.3c4.5,15,9.1,30.5,9.1,45.9c0,15.5-4.6,31.2-8.9,46.2
		c-5.4,18.5-10.4,35.9-6.5,50.5h107.5c-2.3-3.9-4.2-8.1-5.7-12.6C594.3,565.9,596.9,547.7,599.4,530.4z"/>
	<path opacity="0.19" fill="#EFEEEE" d="M487,539.3c4-13.9,8.3-28.2,8.3-41.3c0-12.7-4.3-26.9-8.4-40.6
		c-6.3-20.6-12.5-41.9-6.3-61.9c6.8-21,24.8-34.8,42.4-48.2c11.4-8.7,22.1-17,29.1-26.4c7.1-9.9,11.6-22.8,16.3-36.6
		c7.3-20.8,14.7-42.3,32.2-54.8c3.5-2.3,8.9-5.4,13-6.9c12.1-4.8,26.9-6.3,41.3-7.8c13-1.3,26.4-2.6,36.8-6.6c2.5-1,4.8-2,7.3-3.1
		c6.8-3.5,14-8.7,21.6-14.2c5.6-4,11.2-8.1,17-11.7c8.9-5.7,20.2-11.7,32.1-14.6c7.8-1.9,15.8-2.4,23.5-0.6c1.4,0.1,2.7,0.3,4,0.6
		c15.2,3,29.1,14.3,42.7,25.8v-55.5c-21.9-17.7-44-37.1-69.3-37.1c-41.1,0-73.8,51.3-110.9,63.4c-8.3,2.7-17.4,3.8-27,4.1
		c-8-0.3-17.5-0.6-27.4-0.6c-0.7,0-1.5-0.1-2.2-0.1c-25.4-1.3-50.5-2.5-68.7,9.3c-1.4,0.7-2.6,1.4-3.7,2.2
		c-32.4,23.6-29.1,84.4-52.7,116.7c-23.6,32-82.4,47.2-94.9,85.8c-12.1,37.3,26.2,84.2,26.2,125.3c0,29.4-19.5,61.7-26.3,91.3h96.4
		C476.1,577.1,481.6,557.9,487,539.3z"/>
</g>
</svg>
