<?xml version="1.0" encoding="utf-8"?>
<!-- Generator: Adobe Illustrator 18.0.0, SVG Export Plug-In . SVG Version: 6.00 Build 0)  -->
<!DOCTYPE svg PUBLIC "-//W3C//DTD SVG 1.1//EN" "http://www.w3.org/Graphics/SVG/1.1/DTD/svg11.dtd">
<svg version="1.1" id="Layer_1" xmlns="http://www.w3.org/2000/svg" xmlns:xlink="http://www.w3.org/1999/xlink" x="0px" y="0px"
	 viewBox="0 0 841.9 595.3" enable-background="new 0 0 841.9 595.3" xml:space="preserve">
<g>
	<path fill="#EEEEEE" d="M181.6,538.3c-1.6-11.1-3.3-22.8-3.3-34.3c0-11.5,1.8-23,3.7-34.2c2.7-16.6,5.3-32.1,1.3-45.5
		c-4.4-14.4-15.9-25.9-27.9-38.2c-7.3-7.5-15-15.2-21.2-23.7c-6.2-8.8-11.1-18.6-15.9-27.9c-7.7-15.3-15-30-26.7-38.2
		c-2.4-1.6-7.7-3.5-12.4-5.1c-3.7-0.9-8.8-1.5-14.1-2.2c-11.1-1.5-23.6-3.3-34.7-8.8c-10-4.9-18.8-13.3-27.4-21.4
		c-1-0.9-2-1.9-3-2.8v48.3c10.6,1.4,19.1,10.6,21.1,21.9c5.1,17,23.4,31,33.2,37.4c3.5,2.6,5.5,3.8,6,3.8
		c41.1,27.4,68.7,80,68.7,140.5c0,32.2-7.9,62.2-21.4,87.3h70.8c1.4-2.7,2.6-5.4,3.5-8.2C186.6,572.8,184.2,556,181.6,538.3z"/>
	<path fill="#EEEEEE" d="M236.4,500.1c0-17,5.1-34.2,10-50.8c6.2-20.8,12.2-40.5,6.9-56.8c-5.5-17.4-22.3-30.1-40-43.7
		c-13.2-10-26.8-20.5-36.2-33.4c-9.5-13.2-15.3-29.6-20.8-45.5c-7.3-21-14.2-40.7-28.5-51c-4.6-3.1-10.8-5.5-19.9-7.3
		c-8.4-1.3-18.4-1.5-28.9-1.5c-17.2-0.2-34.7-0.2-50.4-6.2C18.6,200.2,9.1,193.6,0,186.2v43.8c5.8,4.3,11.3,9.4,16.7,14.5
		c7.5,7.1,15.3,14.4,22.6,18.1c8.2,4,18.4,5.5,28.5,6.9c5.8,0.7,11.7,1.6,16.8,2.9c8.4,2.9,13.9,5.1,18.1,7.9
		c16.1,11.3,24.8,28.9,33.2,45.8c4.6,9.1,8.9,17.9,14.2,25.4c5.1,7.3,11.9,14.1,19,21.4c13.3,13.3,26.8,27.2,32.9,46.2
		c5.5,17.7,2.4,36.5-0.5,54.6c-1.6,10.2-3.5,21-3.5,30.9c0,10.2,1.6,21,3.1,31.4c2.9,19.2,5.8,39.1-0.4,57.9
		c-0.1,0.4-0.3,0.9-0.5,1.3h54.8c0.1-13.4-4.3-28.4-8.9-44C241.4,534.4,236.4,517.3,236.4,500.1z"/>
	<path fill="#EEEEEE" d="M349.5,367c-13.9-42.7-79.1-59.7-105-95.2c-26.1-36-22.3-103-58.3-129.1c-20.3-14.6-49.1-13.2-78.2-11.7
		c-1.2,0.1-2.4,0.1-3.6,0.2c-10.5,0.5-21,0.9-31,0.5c-9.9-0.4-19.4-1.7-28.1-4.5c-15.6-5-30.5-16.3-45.4-28.3v61.5
		c0.4,0.3,0.8,0.7,1.2,1c12.1,10.2,23.4,19.7,34.7,24.1c12.2,4.7,28.1,4.7,43.5,4.9c10.8,0,21.9,0.2,32.3,1.8
		c12.4,2.4,21.2,5.8,27.9,10.8c19.4,13.9,27.8,37.6,35.6,60.6c5.3,15.2,10.2,29.6,18.1,40.5c7.7,10.6,19.5,19.7,32.1,29.2
		c19.4,14.8,39.5,30.1,46.9,53.3c6.9,22.1,0,45.7-6.9,68.5c-4.6,15.2-9.3,30.9-9.3,44.9c0,14.2,4.6,30.1,9.1,45.7
		c4.8,16.4,9.6,33.2,9.5,49.5h71.6c-9.1-29.5-26-60.8-26-89.5C320.5,460.1,362.8,408.2,349.5,367z"/>
</g>
</svg>
